Coordinates
version=1
nRows=34
nColumns=38
inDegrees=no

Units are S.I. units (second, meters, Newtons, ...)
If the header above contains a line with 'inDegrees', this indicates whether rotational values are in degrees (yes) or radians (no).

endheader
time	pelvis_tilt	pelvis_list	pelvis_rotation	pelvis_tx	pelvis_ty	pelvis_tz	hip_flexion_r	hip_adduction_r	hip_rotation_r	knee_angle_r	ankle_angle_r	subtalar_angle_r	mtp_angle_r	hip_flexion_l	hip_adduction_l	hip_rotation_l	knee_angle_l	ankle_angle_l	subtalar_angle_l	mtp_angle_l	lumbar_extension	lumbar_bending	lumbar_rotation	arm_flex_r	arm_add_r	arm_rot_r	elbow_flex_r	pro_sup_r	wrist_flex_r	wrist_dev_r	arm_flex_l	arm_add_l	arm_rot_l	elbow_flex_l	pro_sup_l	wrist_flex_l	wrist_dev_l
0	2.59582	1.50213	-0.944925	0.68573	-0.710921	0.908199	0.387148	-0.0575797	-0.323147	0.378469	0.0136165	0	0	-0.344609	-0.114569	-0.330403	0.401071	0.243044	0	0	-0.162516	0.115195	-0.197675	-0.000979882	-0.320415	0.563065	0.55371	1.25937	0	0	-0.0214762	-0.301963	0.209736	0.699348	1.17155	0	0
0.01	2.53611	1.49872	-0.894819	0.687786	-0.700236	0.909334	0.378297	-0.0503839	-0.319535	0.381867	0.00686745	0	0	-0.326881	-0.117562	-0.316325	0.449485	0.203733	0	0	-0.162713	0.122659	-0.181951	-0.00839338	-0.324066	0.564299	0.550486	1.26005	0	0	-0.0266603	-0.297114	0.219138	0.690772	1.17324	0	0
0.02	2.48762	1.49772	-0.851237	0.690819	-0.688931	0.910368	0.36964	-0.0418916	-0.316767	0.384243	0.0015531	0	0	-0.304958	-0.135267	-0.317729	0.505503	0.167009	0	0	-0.159133	0.126201	-0.167306	-0.0193823	-0.326049	0.561154	0.549195	1.25689	0	0	-0.0313617	-0.294161	0.231696	0.682029	1.17419	0	0
0.03	2.40716	1.49821	-0.775843	0.693876	-0.677738	0.911148	0.362749	-0.0320301	-0.315536	0.384407	-0.000429682	0	0	-0.275621	-0.155267	-0.317132	0.567467	0.123447	0	0	-0.151662	0.130368	-0.152236	-0.0306928	-0.328572	0.558637	0.549198	1.25132	0	0	-0.0366976	-0.291492	0.246656	0.673451	1.17412	0	0
0.04	2.351	1.49986	-0.721636	0.697985	-0.666474	0.911792	0.355276	-0.0201002	-0.310394	0.384359	-0.00200254	0	0	-0.245968	-0.185202	-0.319575	0.629628	0.082709	0	0	-0.144376	0.130058	-0.140418	-0.0416901	-0.3304	0.558963	0.5541	1.24392	0	0	-0.0440611	-0.291833	0.259999	0.668954	1.17309	0	0
0.05	2.22745	1.50037	-0.603379	0.701213	-0.655624	0.912096	0.350114	-0.00797243	-0.308504	0.382065	0.00155245	0	0	-0.208138	-0.206067	-0.310796	0.6952	0.030997	0	0	-0.135799	0.134423	-0.121479	-0.0569033	-0.33579	0.555379	0.565288	1.22718	0	0	-0.047045	-0.292439	0.286506	0.664508	1.16416	0	0
0.06	2.16622	1.49702	-0.547573	0.70414	-0.645108	0.912755	0.339481	0.00385463	-0.306414	0.380733	0.00955796	0	0	-0.175969	-0.22473	-0.298395	0.757106	-0.0199526	0	0	-0.132298	0.139972	-0.107715	-0.0636915	-0.343574	0.569283	0.57309	1.21193	0	0	-0.0534005	-0.291918	0.303533	0.663073	1.15143	0	0
0.07	2.11099	1.49399	-0.496417	0.706946	-0.634762	0.913532	0.329227	0.0147735	-0.303489	0.380252	0.0201549	0	0	-0.141833	-0.241379	-0.281438	0.817432	-0.0727405	0	0	-0.12881	0.14437	-0.0951316	-0.0702157	-0.350811	0.579419	0.583513	1.1968	0	0	-0.0597828	-0.291853	0.320173	0.662122	1.14029	0	0
0.08	2.07718	1.49008	-0.466279	0.709543	-0.62449	0.914519	0.317375	0.025302	-0.299962	0.380099	0.0315177	0	0	-0.108955	-0.256341	-0.263213	0.874723	-0.124582	0	0	-0.127357	0.149005	-0.0836194	-0.0753707	-0.358613	0.588297	0.59571	1.18407	0	0	-0.0666561	-0.291516	0.335747	0.661231	1.13158	0	0
0.09	2.07438	1.48664	-0.468474	0.711938	-0.614339	0.915773	0.304169	0.0338094	-0.294404	0.381152	0.0426253	0	0	-0.0797168	-0.267117	-0.2467	0.926408	-0.164366	0	0	-0.128537	0.152289	-0.0712386	-0.0788038	-0.366633	0.596145	0.606903	1.17589	0	0	-0.0730771	-0.290093	0.349294	0.659761	1.12442	0	0
0.1	2.09691	1.48382	-0.496621	0.714224	-0.604462	0.917288	0.28931	0.0403648	-0.287611	0.381913	0.0529171	0	0	-0.0541215	-0.274202	-0.232815	0.971548	-0.184083	0	0	-0.132593	0.153889	-0.0589751	-0.0798719	-0.373703	0.601227	0.616513	1.17136	0	0	-0.0788142	-0.287932	0.359903	0.657919	1.11765	0	0
0.11	2.13382	1.48157	-0.538465	0.716473	-0.594727	0.919019	0.272519	0.0454238	-0.281338	0.380639	0.0623892	0	0	-0.0310509	-0.278968	-0.220581	1.01002	-0.191655	0	0	-0.137991	0.153813	-0.0486893	-0.0784823	-0.379085	0.605164	0.623405	1.17042	0	0	-0.0850126	-0.285844	0.367609	0.656303	1.11188	0	0
0.12	2.17795	1.48021	-0.587104	0.718724	-0.585098	0.920881	0.254657	0.0490471	-0.275187	0.377442	0.0710437	0	0	-0.00887665	-0.281371	-0.208306	1.0443	-0.197069	0	0	-0.143474	0.151953	-0.0394653	-0.0754221	-0.382782	0.608909	0.626767	1.17275	0	0	-0.0918715	-0.284203	0.374092	0.655356	1.1071	0	0
0.13	2.23188	1.47987	-0.6462	0.720998	-0.575714	0.922836	0.236324	0.0511076	-0.268197	0.3728	0.0785355	0	0	0.0132095	-0.28174	-0.197739	1.07717	-0.188346	0	0	-0.149684	0.148065	-0.0303425	-0.0706143	-0.385349	0.610632	0.628972	1.17809	0	0	-0.0987013	-0.283231	0.381696	0.655108	1.10006	0	0
0.14	2.29263	1.47994	-0.710745	0.723148	-0.566492	0.924862	0.217033	0.0517773	-0.262823	0.366152	0.0852214	0	0	0.0357216	-0.280709	-0.18742	1.10726	-0.169643	0	0	-0.15613	0.142879	-0.0234517	-0.0644806	-0.386238	0.609769	0.629042	1.18845	0	0	-0.105724	-0.283075	0.389842	0.656284	1.0879	0	0
0.15	2.36011	1.48059	-0.781318	0.725231	-0.557393	0.926919	0.19737	0.0509299	-0.258965	0.358408	0.0918454	0	0	0.0574933	-0.277821	-0.178192	1.13091	-0.15216	0	0	-0.162495	0.136313	-0.0183359	-0.0570682	-0.385528	0.607303	0.627051	1.20075	0	0	-0.113265	-0.282746	0.395221	0.657206	1.07848	0	0
0.16	2.43401	1.48177	-0.85918	0.727313	-0.548506	0.928953	0.178147	0.0489378	-0.254483	0.350216	0.0978496	0	0	0.0780808	-0.273297	-0.171755	1.14769	-0.139001	0	0	-0.168989	0.128543	-0.0131863	-0.0484935	-0.384628	0.604207	0.62557	1.20498	0	0	-0.12074	-0.281477	0.396729	0.657823	1.07526	0	0
0.17	2.50862	1.48302	-0.936847	0.729263	-0.539782	0.930939	0.158834	0.0464415	-0.25088	0.340409	0.10304	0	0	0.0987037	-0.268031	-0.166171	1.15925	-0.126965	0	0	-0.175095	0.120422	-0.00921044	-0.0392796	-0.382863	0.59874	0.623372	1.2086	0	0	-0.127956	-0.280192	0.397215	0.659249	1.07104	0	0
0.18	2.58358	1.48423	-1.01389	0.731034	-0.531157	0.932857	0.139692	0.0433843	-0.248652	0.32968	0.107169	0	0	0.119223	-0.261923	-0.160992	1.16624	-0.115948	0	0	-0.180719	0.112259	-0.0067585	-0.0298449	-0.381061	0.592437	0.621853	1.21183	0	0	-0.135301	-0.278803	0.396906	0.661392	1.06603	0	0
0.19	2.65647	1.48575	-1.08946	0.732799	-0.522524	0.934657	0.121383	0.0400568	-0.246711	0.318267	0.110327	0	0	0.138961	-0.255595	-0.15856	1.168	-0.106524	0	0	-0.185199	0.103954	-0.00437159	-0.0205958	-0.379426	0.585151	0.622095	1.2145	0	0	-0.143065	-0.277295	0.397294	0.662683	1.06174	0	0
0.2	2.73095	1.48756	-1.16893	0.734693	-0.513892	0.936335	0.104252	0.0363622	-0.243389	0.306972	0.112854	0	0	0.156954	-0.249344	-0.160692	1.16443	-0.0981503	0	0	-0.188903	0.0952134	-0.000863677	-0.0107769	-0.37805	0.577697	0.623558	1.21637	0	0	-0.151478	-0.275287	0.396424	0.664327	1.05808	0	0
0.21	2.81572	1.48835	-1.25919	0.736515	-0.505312	0.938029	0.0864736	0.0319679	-0.238816	0.295549	0.114959	0	0	0.17257	-0.242586	-0.165388	1.15615	-0.0903508	0	0	-0.193597	0.0860155	0.00284384	-0.000643024	-0.376935	0.570058	0.625653	1.21734	0	0	-0.159713	-0.272757	0.393453	0.666937	1.05473	0	0
0.22	2.90417	1.48793	-1.35422	0.738344	-0.496736	0.939716	0.0681851	0.0272107	-0.233483	0.284265	0.116692	0	0	0.185674	-0.235862	-0.173164	1.14359	-0.0811343	0	0	-0.199133	0.0765887	0.00699914	0.00940084	-0.376223	0.560556	0.629866	1.21609	0	0	-0.168075	-0.269671	0.388463	0.67027	1.05182	0	0
0.23	2.98957	1.4865	-1.44664	0.740143	-0.488141	0.941326	0.0496039	0.0223486	-0.228014	0.272993	0.118726	0	0	0.196944	-0.22958	-0.183931	1.12741	-0.0671813	0	0	-0.205091	0.0672393	0.0107423	0.0193073	-0.375862	0.549834	0.636936	1.21286	0	0	-0.176845	-0.266308	0.382212	0.673759	1.04989	0	0
0.24	3.06503	1.48455	-1.52865	0.741814	-0.479548	0.942789	0.0309977	0.01783	-0.222336	0.261427	0.120684	0	0	0.207485	-0.223789	-0.196244	1.1081	-0.0493915	0	0	-0.21064	0.0585328	0.01399	0.0290698	-0.376598	0.545132	0.64424	1.21448	0	0	-0.185552	-0.26264	0.375023	0.67723	1.04979	0	0
0.25	3.14054	1.48042	-1.6107	0.74364	-0.470924	0.94422	0.0099544	0.0132421	-0.214783	0.248484	0.122318	0	0	0.214386	-0.218213	-0.211327	1.08434	-0.032863	0	0	-0.206879	0.0492507	0.0513879	0.0027343	-0.376984	0.482423	0.661717	1.2293	0	0	-0.162252	-0.272792	0.455117	0.665001	1.01484	0	0
0.26	-3.08219	1.47825	-1.67842	0.745287	-0.462137	0.945381	-0.00802239	0.0090022	-0.206994	0.236649	0.123471	0	0	0.222132	-0.213525	-0.228664	1.05687	-0.0197933	0	0	-0.221413	0.0395272	0.0273914	0.0400923	-0.375235	0.508799	0.662701	1.22993	0	0	-0.197052	-0.260006	0.381464	0.683471	1.0288	0	0
0.27	-3.0313	1.47252	-1.73611	0.746923	-0.453478	0.946559	-0.0293339	0.00468427	-0.199814	0.224963	0.124523	0	0	0.22535	-0.209234	-0.247597	1.02619	-0.0102244	0	0	-0.225384	0.031888	0.0372598	0.0434903	-0.377977	0.498142	0.674988	1.21966	0	0	-0.197782	-0.258356	0.390959	0.680268	1.03591	0	0
0.28	-2.98825	1.46677	-1.7851	0.748348	-0.444895	0.947585	-0.0498302	1.85942e-05	-0.194176	0.214535	0.125988	0	0	0.228145	-0.204528	-0.266945	0.992638	-0.0024554	0	0	-0.229353	0.02484	0.0459995	0.0470411	-0.381273	0.488783	0.688095	1.21192	0	0	-0.198039	-0.257316	0.403549	0.678113	1.03443	0	0
0.29	-2.94776	1.46277	-1.83052	0.749569	-0.436267	0.948369	-0.0680536	-0.00468044	-0.188569	0.204786	0.127731	0	0	0.232254	-0.199151	-0.286398	0.956552	0.00435791	0	0	-0.221126	0.0187564	0.0849935	0.0174017	-0.384832	0.4304	0.708546	1.21666	0	0	-0.169184	-0.268543	0.498726	0.661926	0.994203	0	0
0.3	-2.91637	1.45792	-1.86641	0.750609	-0.427712	0.948998	-0.0867767	-0.00934315	-0.183924	0.195916	0.130439	0	0	0.234539	-0.193483	-0.306673	0.918287	0.0119569	0	0	-0.224464	0.0130243	0.0911017	0.0214085	-0.38789	0.419197	0.722264	1.21935	0	0	-0.169544	-0.267788	0.514134	0.661255	0.979261	0	0
0.31	-2.88755	1.45381	-1.89978	0.751535	-0.419109	0.949419	-0.10421	-0.014202	-0.179955	0.188043	0.134009	0	0	0.236403	-0.187297	-0.327967	0.87739	0.0185044	0	0	-0.227582	0.00713832	0.0984936	0.0234241	-0.390648	0.404007	0.737407	1.22056	0	0	-0.168638	-0.266277	0.526325	0.66025	0.967517	0	0
0.32	-2.86495	1.45024	-1.92648	0.752344	-0.410548	0.949635	-0.120714	-0.0186052	-0.177321	0.181209	0.13849	0	0	0.238061	-0.181097	-0.349253	0.834415	0.023087	0	0	-0.230598	0.00209328	0.104966	0.0257925	-0.393453	0.389383	0.752179	1.22134	0	0	-0.167762	-0.264382	0.536838	0.65924	0.957851	0	0
0.33	-2.8499	1.44724	-1.94519	0.753011	-0.402046	0.949653	-0.136401	-0.0222414	-0.175616	0.175335	0.143714	0	0	0.23973	-0.175039	-0.370212	0.789685	0.0255174	0	0	-0.233554	-0.00178529	0.110546	0.0281559	-0.396437	0.374335	0.768281	1.22306	0	0	-0.166843	-0.262066	0.545709	0.658102	0.948833	0	0
